<?xml version="1.0" encoding="utf-8"?>
<!-- Generator: Adobe Illustrator 27.9.0, SVG Export Plug-In . SVG Version: 6.00 Build 0)  -->
<svg version="1.1" id="Layer_1" xmlns="http://www.w3.org/2000/svg" xmlns:xlink="http://www.w3.org/1999/xlink" x="0px" y="0px"
	 viewBox="0 0 144.9 35.9" style="enable-background:new 0 0 144.9 35.9;" xml:space="preserve">
<style type="text/css">
	.st0{fill:#212121;}
	.st1{fill:#4CBBAA;}
</style>
<g>
	<g>
		<g>
			<path class="st0" d="M50.4,18.8c0,2.1,0.5,4.2,1.9,6.1h-1.3c-1.4-1.6-2-3.7-2-6.2v-0.6c0-2.5,0.7-4.5,2-6.2h1.3
				c-1.3,1.8-1.9,3.9-1.9,6.1V18.8z"/>
			<path class="st0" d="M58.2,24.5v-4.3h-5.1V19h11.6v1.2h-5.1v4.3H58.2z M58.9,15.6L58.9,15.6c-0.2,0.3-0.6,0.7-1.5,1.1
				c-0.7,0.4-1.7,0.8-2.8,1.3L54,16.9c1-0.4,2-0.8,2.9-1.3c1.1-0.6,1.3-1.2,1.3-1.9h-3.6v-1.2h8.7v1.2h-3.7c0,0.7,0.2,1.3,1.3,1.9
				c0.9,0.5,1.9,0.9,2.9,1.3L63.3,18c-1.1-0.4-2.1-0.9-2.8-1.3C59.5,16.3,59.1,15.9,58.9,15.6z"/>
			<path class="st0" d="M67.4,18.1c0-2.2-0.5-4.3-1.9-6.1h1.3c1.4,1.6,2,3.7,2,6.2v0.6c0,2.5-0.7,4.6-2,6.2h-1.3
				c1.4-1.9,1.9-4,1.9-6.1V18.1z"/>
			<path class="st0" d="M77,16.4v1.4c0,2.4-1.3,3.7-3.2,3.7c-1.9,0-3.2-1.2-3.2-3.7v-1.4c0-2.4,1.3-3.7,3.2-3.7
				C75.7,12.7,77,13.9,77,16.4z M75.7,17.6v-1c0-1.9-0.9-2.6-1.9-2.6c-1,0-1.9,0.7-1.9,2.6v1c0,1.9,0.9,2.6,1.9,2.6
				C74.8,20.2,75.7,19.5,75.7,17.6z M82.1,17.6h-2v6.9h-1.4V11.8h1.4v4.6h2V17.6z"/>
			<path class="st0" d="M87.9,24.5v-4.2h-5.1v-1.2h11.6v1.2h-5.1v4.2H87.9z M92.8,14.8v0.5c0,1.6-1.7,2.7-4.3,2.7
				c-2.6,0-4.3-1.1-4.3-2.7v-0.5c0-1.6,1.7-2.7,4.3-2.7C91.2,12.1,92.8,13.2,92.8,14.8z M91.5,15.3v-0.4c0-0.9-1.2-1.6-2.9-1.6
				s-2.9,0.6-2.9,1.6v0.4c0,0.9,1.2,1.6,2.9,1.6S91.5,16.2,91.5,15.3z"/>
			<path class="st0" d="M106.9,18.4v1.1H95.3v-1.1H106.9z M96.9,17.6v-3.2h6.9v-1h-7v-1.1h8.3v3.2h-6.9v1h7.1v1.1H96.9z M105.2,24.5
				h-8.3v-4h8.3V24.5z M103.9,21.6h-5.6v1.8h5.6V21.6z"/>
			<path class="st0" d="M114.4,17.4c-0.7,0.1-1.6,0.1-2.5,0.2v1.7h-1.7v-1.7c-0.8,0-1.6,0-2.5,0v-1.3c2.8,0,4.7,0,6.6-0.2
				L114.4,17.4z M108.3,14.2v-0.4c0-1.2,1.3-1.8,2.8-1.8s2.8,0.7,2.8,1.8v0.4c0,1.2-1.3,1.8-2.8,1.8S108.3,15.3,108.3,14.2z
				 M109.8,13.9v0.1c0,0.5,0.6,0.7,1.3,0.7c0.6,0,1.3-0.2,1.3-0.7v-0.1c0-0.5-0.6-0.7-1.3-0.7C110.5,13.2,109.8,13.4,109.8,13.9z
				 M118.9,19.7v3.1h-6.9v0.6h7.2v1.3h-8.9v-3.1h6.9V21h-6.9v-1.3H118.9z M116.6,19.3H115v-0.2h-2v-1.2h2v-5.9h1.6V19.3z
				 M118.9,19.3h-1.6v-7.6h1.6V19.3z"/>
			<path class="st0" d="M123,19.7h0.9c1.3,0,2.9-0.1,4.2-0.3l0.2,1.5c-1.3,0.2-3.2,0.3-4.8,0.3h-2.3v-8.4h1.8V19.7z M131,24.6h-1.7
				V11.8h1.7V24.6z"/>
			<path class="st0" d="M144.5,21.5V23h-11.7v-1.5H144.5z M138.7,16.8c-0.1,0.3-0.6,0.7-1.3,1.1c-0.7,0.5-1.7,1.1-3,1.8l-0.9-1.4
				c1-0.6,2.1-1.2,2.9-1.8c1.1-0.7,1.4-1.4,1.4-2.6v-1.4h1.8V14c0,1.2,0.3,1.9,1.4,2.6c0.8,0.5,1.9,1.2,2.9,1.8l-0.8,1.3
				c-1.3-0.7-2.3-1.3-3-1.8C139.3,17.5,138.8,17.1,138.7,16.8L138.7,16.8z"/>
		</g>
	</g>
</g>
<g>
	<g>
		<g>
			<path class="st1" d="M6.6,5.5C5.3,6.1,4.9,6.9,3.8,7.7C5.3,8.1,6.1,6.1,8,5.6C7.5,5.6,7.1,5.7,6.6,5.5z"/>
			<path class="st1" d="M5.5,4.7C3.5,5.9,2.9,7.1,1.6,8c1.6,0.5,2.8-1.9,4.6-2.8C5.9,5.2,5.7,4.9,5.5,4.7z"/>
			<polygon class="st1" points="18.5,2 18.5,2 18.5,2 			"/>
			<path class="st1" d="M2.3,6.7c2.4-2.7,6.3-4.9,10-4.7C9.9,2.7,7.9,4.4,5.8,4.5c1.2,1.4,2.7,0.5,4,0c1.8-0.6,3.6,0.4,5.5,1.4l0,0
				c0,0,0.3,0.2,1,0.5c0.8,0.3,2,0.7,4,1c2.3,0.4,5.5,0.9,10,0.9c0,0-5.1,0-9.3-3.8c-0.8-0.7-1.6-1.6-2.9-2.8S14.8-0.1,12.6,0
				C8,0.2,2.8,3.5,0,7.9C0.9,8.1,1.7,7.4,2.3,6.7z"/>
		</g>
		<path class="st1" d="M21,1.5c0,0,3.7,0.1,7.2,2.6s6.3,4.2,11.5,4c0,0-7.2,0.6-12.3-1.8C24.2,4.8,22.4,2.2,21,1.5z"/>
	</g>
	<g>
		<g>
			<path class="st1" d="M33.1,30.4c1.3-0.6,1.7-1.4,2.9-2.2c-1.5-0.4-2.3,1.6-4.2,2.2C32.2,30.2,32.7,30.2,33.1,30.4z"/>
			<path class="st1" d="M34.3,31.2c2-1.2,2.5-2.4,3.8-3.4c-1.6-0.5-2.8,1.9-4.6,2.8C33.8,30.7,34.1,31,34.3,31.2z"/>
			<polygon class="st1" points="21.3,33.9 21.3,33.9 21.3,33.9 			"/>
			<path class="st1" d="M37.5,29.1c-2.4,2.7-6.3,4.9-10,4.7c2.3-0.7,4.3-2.4,6.4-2.5c-1.2-1.4-2.7-0.5-4,0c-1.8,0.6-3.6-0.4-5.5-1.4
				l0,0c0,0-0.3-0.2-1-0.5c-0.8-0.3-2-0.7-4-1c-2.3-0.4-5.5-0.9-10-0.9c0,0,5.1,0,9.3,3.8c0.8,0.7,1.6,1.6,2.9,2.8
				c1.4,1.2,3.3,1.7,5.5,1.6c4.6-0.2,9.8-3.5,12.6-7.9C38.8,27.7,38.1,28.5,37.5,29.1z"/>
		</g>
		<path class="st1" d="M18.8,34.4c0,0-3.7-0.1-7.2-2.6s-6.3-4.2-11.5-4c0,0,7.2-0.6,12.3,1.8C15.5,31.1,17.3,33.6,18.8,34.4z"/>
	</g>
</g>
<g>
	<g>
		<path class="st1" d="M10.6,18.5H9.5c-0.1,0-0.2,0-0.3-0.1c-0.1-0.1-0.1-0.1-0.2-0.2l-0.4-1H6.4l-0.4,1c0,0.1-0.1,0.1-0.2,0.2
			c-0.1,0.1-0.2,0.1-0.3,0.1H4.5l2.3-6h1.4L10.6,18.5z M6.7,16.2h1.6l-0.6-1.6c0-0.1-0.1-0.2-0.1-0.4c0-0.1-0.1-0.3-0.1-0.5
			c0,0.2-0.1,0.3-0.1,0.5c0,0.1-0.1,0.3-0.1,0.4L6.7,16.2z"/>
		<path class="st1" d="M13.3,17.4c0.2,0,0.4,0,0.5-0.1s0.3-0.2,0.4-0.3c0.1-0.1,0.2-0.3,0.2-0.4c0.1-0.2,0.1-0.4,0.1-0.6v-3.6h1.4
			V16c0,0.4-0.1,0.7-0.2,1c-0.1,0.3-0.3,0.6-0.5,0.8c-0.2,0.2-0.5,0.4-0.8,0.5c-0.3,0.1-0.7,0.2-1.1,0.2c-0.4,0-0.8-0.1-1.1-0.2
			c-0.3-0.1-0.6-0.3-0.8-0.5c-0.2-0.2-0.4-0.5-0.5-0.8c-0.1-0.3-0.2-0.6-0.2-1v-3.6h1.4V16c0,0.2,0,0.4,0.1,0.6s0.1,0.3,0.2,0.4
			c0.1,0.1,0.2,0.2,0.4,0.3S13.2,17.4,13.3,17.4z"/>
		<path class="st1" d="M18.2,16.2v2.2h-1.4v-6h2c0.4,0,0.8,0,1.1,0.1c0.3,0.1,0.6,0.2,0.8,0.4c0.2,0.2,0.3,0.3,0.4,0.6
			s0.1,0.5,0.1,0.7c0,0.2,0,0.4-0.1,0.6c-0.1,0.2-0.1,0.3-0.2,0.5c-0.1,0.1-0.2,0.3-0.4,0.4c-0.2,0.1-0.3,0.2-0.5,0.3
			c0.1,0,0.2,0.1,0.3,0.2s0.2,0.2,0.2,0.3l1.3,2.1h-1.3c-0.2,0-0.4-0.1-0.5-0.3l-1-1.7c0-0.1-0.1-0.1-0.2-0.2c-0.1,0-0.1,0-0.2,0
			H18.2z M18.2,15.3h0.6c0.2,0,0.4,0,0.5-0.1c0.1,0,0.2-0.1,0.3-0.2s0.1-0.2,0.2-0.3c0-0.1,0.1-0.2,0.1-0.4c0-0.3-0.1-0.5-0.3-0.6
			c-0.2-0.1-0.4-0.2-0.8-0.2h-0.6V15.3z"/>
		<path class="st1" d="M24.5,17.4c0.2,0,0.4,0,0.5-0.1s0.3-0.2,0.4-0.3c0.1-0.1,0.2-0.3,0.2-0.4c0.1-0.2,0.1-0.4,0.1-0.6v-3.6h1.4
			V16c0,0.4-0.1,0.7-0.2,1c-0.1,0.3-0.3,0.6-0.5,0.8c-0.2,0.2-0.5,0.4-0.8,0.5c-0.3,0.1-0.7,0.2-1.1,0.2c-0.4,0-0.8-0.1-1.1-0.2
			c-0.3-0.1-0.6-0.3-0.8-0.5c-0.2-0.2-0.4-0.5-0.5-0.8C22,16.7,22,16.4,22,16v-3.6h1.4V16c0,0.2,0,0.4,0.1,0.6s0.1,0.3,0.2,0.4
			c0.1,0.1,0.2,0.2,0.4,0.3S24.4,17.4,24.5,17.4z"/>
		<path class="st1" d="M31.3,16c0.1,0.1,0.1,0.2,0.1,0.3c0-0.1,0.1-0.2,0.1-0.4c0.1-0.1,0.1-0.2,0.2-0.3l1.5-3
			c0-0.1,0.1-0.1,0.1-0.1c0,0,0.1-0.1,0.1-0.1c0,0,0.1,0,0.1,0s0.1,0,0.2,0h1.1v6h-1.2V15c0-0.2,0-0.3,0-0.5L32,17.6
			c0,0.1-0.1,0.2-0.2,0.2c-0.1,0-0.2,0.1-0.3,0.1h-0.2c-0.1,0-0.2,0-0.3-0.1c-0.1,0-0.2-0.1-0.2-0.2l-1.6-3.1c0,0.1,0,0.2,0,0.3
			c0,0.1,0,0.2,0,0.3v3.4H28v-6h1.1c0.1,0,0.1,0,0.2,0c0,0,0.1,0,0.1,0c0,0,0.1,0,0.1,0.1c0,0,0.1,0.1,0.1,0.1l1.5,3
			C31.2,15.8,31.2,15.9,31.3,16z"/>
	</g>
	<g>
		<path class="st1" d="M11.2,21.7h0.3c0,0,0.1,0,0.1,0s0,0,0,0.1l0.5,1.6c0,0.1,0,0.1,0,0.2c0,0.1,0,0.1,0,0.2c0-0.1,0-0.1,0-0.2
			c0-0.1,0-0.1,0.1-0.2l0.5-1.6c0,0,0,0,0-0.1c0,0,0,0,0.1,0h0.2c0,0,0.1,0,0.1,0c0,0,0,0,0,0.1l0.5,1.6c0,0.1,0,0.1,0,0.2
			s0,0.1,0,0.2c0-0.1,0-0.1,0-0.2c0-0.1,0-0.1,0-0.2l0.5-1.6c0,0,0,0,0-0.1c0,0,0,0,0.1,0h0.3l-0.8,2.5h-0.3c0,0-0.1,0-0.1-0.1
			l-0.5-1.7c0,0,0-0.1,0-0.1c0,0,0-0.1,0-0.1c0,0,0,0.1,0,0.1c0,0,0,0.1,0,0.1l-0.5,1.7c0,0.1-0.1,0.1-0.1,0.1H12L11.2,21.7z"/>
		<path class="st1" d="M16.1,21.7c0.1,0,0.3,0,0.4,0.1c0.1,0,0.2,0.1,0.3,0.2c0.1,0.1,0.2,0.2,0.2,0.3c0.1,0.1,0.1,0.3,0.1,0.5
			c0,0.1,0,0.1,0,0.1s0,0-0.1,0h-1.6c0,0.2,0,0.3,0.1,0.4c0,0.1,0.1,0.2,0.2,0.3c0.1,0.1,0.1,0.1,0.2,0.2c0.1,0,0.2,0.1,0.3,0.1
			c0.1,0,0.2,0,0.3,0c0.1,0,0.1-0.1,0.2-0.1c0.1,0,0.1-0.1,0.1-0.1c0,0,0.1,0,0.1,0c0,0,0.1,0,0.1,0l0.1,0.2
			c-0.1,0.1-0.1,0.1-0.2,0.2c-0.1,0-0.2,0.1-0.2,0.1c-0.1,0-0.2,0.1-0.3,0.1c-0.1,0-0.2,0-0.3,0c-0.2,0-0.3,0-0.5-0.1
			c-0.1-0.1-0.3-0.1-0.4-0.3s-0.2-0.2-0.2-0.4C15,23.3,15,23.1,15,22.9c0-0.2,0-0.3,0.1-0.5c0.1-0.1,0.1-0.3,0.2-0.4
			s0.2-0.2,0.4-0.3C15.8,21.7,15.9,21.7,16.1,21.7z M16.1,22c-0.2,0-0.4,0.1-0.5,0.2c-0.1,0.1-0.2,0.3-0.2,0.5h1.3
			c0-0.1,0-0.2,0-0.3s-0.1-0.2-0.1-0.2c-0.1-0.1-0.1-0.1-0.2-0.1C16.3,22,16.2,22,16.1,22z"/>
		<path class="st1" d="M18.1,20.6v3.6h-0.4v-3.6H18.1z"/>
		<path class="st1" d="M19.2,20.6v3.6h-0.4v-3.6H19.2z"/>
		<path class="st1" d="M19.9,24.2v-2.5h0.3c0.1,0,0.1,0,0.1,0.1l0,0.3c0.1-0.1,0.2-0.2,0.4-0.3c0.1-0.1,0.3-0.1,0.5-0.1
			c0.1,0,0.3,0,0.4,0.1s0.2,0.1,0.3,0.2c0.1,0.1,0.1,0.2,0.2,0.3c0,0.1,0.1,0.2,0.1,0.4v1.6h-0.4v-1.6c0-0.2,0-0.3-0.1-0.4
			C21.3,22.1,21.1,22,21,22c-0.1,0-0.2,0-0.4,0.1s-0.2,0.1-0.3,0.2v1.8H19.9z"/>
		<path class="st1" d="M23.4,21.7c0.1,0,0.3,0,0.4,0.1c0.1,0,0.2,0.1,0.3,0.2c0.1,0.1,0.2,0.2,0.2,0.3c0.1,0.1,0.1,0.3,0.1,0.5
			c0,0.1,0,0.1,0,0.1s0,0-0.1,0h-1.6c0,0.2,0,0.3,0.1,0.4c0,0.1,0.1,0.2,0.2,0.3c0.1,0.1,0.1,0.1,0.2,0.2c0.1,0,0.2,0.1,0.3,0.1
			c0.1,0,0.2,0,0.3,0c0.1,0,0.1-0.1,0.2-0.1c0.1,0,0.1-0.1,0.1-0.1c0,0,0.1,0,0.1,0c0,0,0.1,0,0.1,0l0.1,0.2
			c-0.1,0.1-0.1,0.1-0.2,0.2c-0.1,0-0.2,0.1-0.2,0.1c-0.1,0-0.2,0.1-0.3,0.1c-0.1,0-0.2,0-0.3,0c-0.2,0-0.3,0-0.5-0.1
			c-0.1-0.1-0.3-0.1-0.4-0.3s-0.2-0.2-0.2-0.4c-0.1-0.2-0.1-0.4-0.1-0.6c0-0.2,0-0.3,0.1-0.5c0.1-0.1,0.1-0.3,0.2-0.4
			s0.2-0.2,0.4-0.3C23.1,21.7,23.3,21.7,23.4,21.7z M23.5,22c-0.2,0-0.4,0.1-0.5,0.2c-0.1,0.1-0.2,0.3-0.2,0.5h1.3
			c0-0.1,0-0.2,0-0.3s-0.1-0.2-0.1-0.2c-0.1-0.1-0.1-0.1-0.2-0.1C23.6,22,23.6,22,23.5,22z"/>
		<path class="st1" d="M26.3,22.1C26.3,22.2,26.3,22.2,26.3,22.1c-0.1,0.1-0.1,0-0.2,0s-0.1,0-0.1-0.1c0,0-0.1,0-0.2-0.1
			s-0.1,0-0.2,0c-0.1,0-0.1,0-0.2,0c-0.1,0-0.1,0-0.1,0.1s-0.1,0.1-0.1,0.1c0,0,0,0.1,0,0.1c0,0.1,0,0.1,0.1,0.2
			c0,0,0.1,0.1,0.1,0.1c0.1,0,0.1,0.1,0.2,0.1c0.1,0,0.2,0,0.2,0.1c0.1,0,0.2,0.1,0.2,0.1c0.1,0,0.1,0.1,0.2,0.1
			c0.1,0,0.1,0.1,0.1,0.2c0,0.1,0.1,0.2,0.1,0.3c0,0.1,0,0.2-0.1,0.3c0,0.1-0.1,0.2-0.2,0.2s-0.2,0.1-0.3,0.2
			c-0.1,0-0.2,0.1-0.4,0.1c-0.2,0-0.3,0-0.5-0.1s-0.3-0.1-0.4-0.2l0.1-0.2c0,0,0,0,0,0c0,0,0,0,0.1,0s0.1,0,0.1,0s0.1,0,0.1,0.1
			s0.1,0.1,0.2,0.1c0.1,0,0.1,0,0.2,0c0.1,0,0.2,0,0.2,0c0.1,0,0.1-0.1,0.2-0.1s0.1-0.1,0.1-0.1c0,0,0-0.1,0-0.2
			c0-0.1,0-0.1-0.1-0.2c0,0-0.1-0.1-0.1-0.1c-0.1,0-0.1-0.1-0.2-0.1c-0.1,0-0.2,0-0.2-0.1c-0.1,0-0.2-0.1-0.2-0.1
			c-0.1,0-0.1-0.1-0.2-0.1c-0.1,0-0.1-0.1-0.1-0.2c0-0.1-0.1-0.2-0.1-0.3c0-0.1,0-0.2,0.1-0.3c0-0.1,0.1-0.2,0.2-0.2
			s0.2-0.1,0.3-0.2c0.1,0,0.2-0.1,0.4-0.1c0.2,0,0.3,0,0.4,0.1c0.1,0.1,0.2,0.1,0.3,0.2L26.3,22.1z"/>
		<path class="st1" d="M28.3,22.1C28.3,22.2,28.3,22.2,28.3,22.1c-0.1,0.1-0.1,0-0.2,0s-0.1,0-0.1-0.1c0,0-0.1,0-0.2-0.1
			s-0.1,0-0.2,0c-0.1,0-0.1,0-0.2,0c-0.1,0-0.1,0-0.1,0.1s-0.1,0.1-0.1,0.1c0,0,0,0.1,0,0.1c0,0.1,0,0.1,0.1,0.2
			c0,0,0.1,0.1,0.1,0.1c0.1,0,0.1,0.1,0.2,0.1c0.1,0,0.2,0,0.2,0.1c0.1,0,0.2,0.1,0.2,0.1c0.1,0,0.1,0.1,0.2,0.1
			c0.1,0,0.1,0.1,0.1,0.2c0,0.1,0.1,0.2,0.1,0.3c0,0.1,0,0.2-0.1,0.3c0,0.1-0.1,0.2-0.2,0.2s-0.2,0.1-0.3,0.2
			c-0.1,0-0.2,0.1-0.4,0.1c-0.2,0-0.3,0-0.5-0.1s-0.3-0.1-0.4-0.2l0.1-0.2c0,0,0,0,0,0c0,0,0,0,0.1,0s0.1,0,0.1,0s0.1,0,0.1,0.1
			s0.1,0.1,0.2,0.1c0.1,0,0.1,0,0.2,0c0.1,0,0.2,0,0.2,0c0.1,0,0.1-0.1,0.2-0.1s0.1-0.1,0.1-0.1c0,0,0-0.1,0-0.2
			c0-0.1,0-0.1-0.1-0.2c0,0-0.1-0.1-0.1-0.1c-0.1,0-0.1-0.1-0.2-0.1c-0.1,0-0.2,0-0.2-0.1c-0.1,0-0.2-0.1-0.2-0.1
			c-0.1,0-0.1-0.1-0.2-0.1c-0.1,0-0.1-0.1-0.1-0.2c0-0.1-0.1-0.2-0.1-0.3c0-0.1,0-0.2,0.1-0.3c0-0.1,0.1-0.2,0.2-0.2
			s0.2-0.1,0.3-0.2c0.1,0,0.2-0.1,0.4-0.1c0.2,0,0.3,0,0.4,0.1c0.1,0.1,0.2,0.1,0.3,0.2L28.3,22.1z"/>
	</g>
</g>
</svg>
